<?xml version="1.0" standalone="no"?>
<!DOCTYPE svg PUBLIC "-//W3C//DTD SVG 20010904//EN"
 "http://www.w3.org/TR/2001/REC-SVG-20010904/DTD/svg10.dtd">
<svg version="1.0" xmlns="http://www.w3.org/2000/svg"
 width="444.000000pt" height="444.000000pt" viewBox="0 0 444.000000 444.000000"
 preserveAspectRatio="xMidYMid meet">
<metadata>
Created by potrace 1.14, written by Peter Selinger 2001-2017
</metadata>
<g transform="translate(0.000000,444.000000) scale(0.100000,-0.100000)"
fill="#000000" stroke="none">
<path d="M1749 3003 c-13 -16 -12 -17 4 -4 9 7 17 15 17 17 0 8 -8 3 -21 -13z"/>
<path d="M1709 2963 c-13 -16 -12 -17 4 -4 9 7 17 15 17 17 0 8 -8 3 -21 -13z"/>
<path d="M646 2931 c-61 -32 -76 -81 -39 -137 10 -17 21 -21 41 -18 29 5 72
49 72 75 0 8 11 36 23 62 l24 46 -37 -2 c-21 -1 -58 -13 -84 -26z m-9 -117
c-6 -20 -13 -32 -14 -27 -4 11 14 63 21 63 2 0 -1 -16 -7 -36z"/>
<path d="M2350 2936 c0 -2 8 -10 18 -17 15 -13 16 -12 3 4 -13 16 -21 21 -21
13z"/>
<path d="M1785 2920 c-3 -6 1 -7 9 -4 18 7 21 14 7 14 -6 0 -13 -4 -16 -10z"/>
<path d="M2470 2921 c0 -6 4 -13 10 -16 6 -3 7 1 4 9 -7 18 -14 21 -14 7z"/>
<path d="M1715 2849 c-4 -6 -5 -12 -2 -15 2 -3 7 2 10 11 7 17 1 20 -8 4z"/>
<path d="M1769 2843 c-13 -16 -12 -17 4 -4 9 7 17 15 17 17 0 8 -8 3 -21 -13z"/>
<path d="M460 2832 c-26 -3 -118 -31 -134 -40 -5 -2 4 -10 20 -17 16 -7 48
-31 72 -54 55 -53 95 -73 135 -68 39 4 40 16 7 54 -41 45 -45 62 -5 20 36 -38
56 -42 50 -9 -2 9 -4 25 -4 34 -2 47 -77 89 -141 80z"/>
<path d="M1715 2780 c-3 -5 -1 -10 4 -10 6 0 11 5 11 10 0 6 -2 10 -4 10 -3 0
-8 -4 -11 -10z"/>
<path d="M663 2760 c-22 -18 -42 -56 -50 -94 -3 -18 -2 -18 14 -4 25 22 83 50
83 41 0 -5 -18 -16 -40 -27 -46 -22 -57 -42 -30 -56 34 -18 89 -11 150 21 32
16 71 32 87 34 15 2 30 4 32 4 11 2 -56 51 -97 72 -60 29 -120 33 -149 9z"/>
<path d="M1880 2760 c-9 -6 -10 -10 -3 -10 6 0 15 5 18 10 8 12 4 12 -15 0z"/>
<path d="M1651 2684 c0 -11 3 -14 6 -6 3 7 2 16 -1 19 -3 4 -6 -2 -5 -13z"/>
<path d="M1749 2683 c-13 -16 -12 -17 4 -4 16 13 21 21 13 21 -2 0 -10 -8 -17
-17z"/>
<path d="M1839 2663 c-13 -16 -12 -17 4 -4 16 13 21 21 13 21 -2 0 -10 -8 -17
-17z"/>
<path d="M2230 2636 c0 -2 8 -10 18 -17 15 -13 16 -12 3 4 -13 16 -21 21 -21
13z"/>
<path d="M1830 2595 c-7 -9 -11 -17 -9 -20 3 -2 10 5 17 15 14 24 10 26 -8 5z"/>
<path d="M2450 2601 c0 -6 4 -13 10 -16 6 -3 7 1 4 9 -7 18 -14 21 -14 7z"/>
<path d="M2548 2567 c-2 -12 -9 -21 -16 -19 -8 1 -11 -2 -7 -8 3 -6 10 -8 14
-5 12 7 -1 -49 -13 -57 -6 -5 -7 -8 -1 -8 6 0 10 -32 9 -77 0 -43 3 -90 7
-106 5 -18 4 -25 -3 -21 -5 4 -2 -5 7 -20 10 -14 15 -26 11 -26 -3 0 3 -16 14
-36 11 -19 18 -39 15 -43 -5 -9 20 -34 45 -45 8 -3 29 -15 45 -25 37 -22 116
-21 162 2 17 9 34 13 38 9 5 -4 5 -2 2 4 -7 12 20 29 38 25 5 -2 7 0 3 4 -3 4
7 28 23 53 16 25 29 52 29 60 0 7 3 11 8 9 8 -6 9 -1 17 173 6 115 4 138 -9
155 -15 19 -17 19 -30 3 -9 -12 -12 -41 -10 -91 3 -86 -16 -193 -33 -190 -7 2
-10 -4 -6 -12 13 -36 -88 -140 -142 -145 -40 -4 -66 0 -60 10 3 5 0 7 -7 5 -8
-3 -27 9 -43 26 -17 18 -23 28 -15 24 8 -4 5 2 -8 15 -13 12 -21 28 -18 36 3
7 1 16 -3 19 -5 3 -9 20 -10 37 -1 18 -2 51 -4 73 -1 31 1 39 13 37 13 -2 13
-1 0 10 -17 14 -23 68 -7 68 6 0 6 5 -1 13 -6 6 -12 27 -14 46 -4 40 -35 53
-40 18z m63 -444 c13 -16 12 -17 -3 -4 -17 13 -22 21 -14 21 2 0 10 -8 17 -17z"/>
<path d="M1637 2551 c-4 -17 -3 -21 5 -13 5 5 8 16 6 23 -3 8 -7 3 -11 -10z"/>
<path d="M597 2543 c-10 -16 -16 -62 -32 -218 -7 -75 -8 -252 -1 -263 9 -15
43 -15 52 0 4 6 9 113 11 238 4 190 2 229 -11 239 -8 6 -16 8 -19 4z"/>
<path d="M2115 2535 c-87 -33 -139 -130 -138 -255 3 -203 230 -302 411 -178
62 42 102 116 81 149 -7 11 -14 8 -36 -16 -16 -16 -28 -32 -27 -35 0 -3 -8
-14 -18 -24 -10 -11 -18 -17 -18 -13 0 4 -9 -2 -19 -12 -45 -45 -144 -52 -217
-16 -66 33 -88 71 -88 155 0 54 4 74 27 112 46 79 148 108 258 72 51 -16 105
-65 94 -85 -5 -8 -4 -10 3 -5 7 4 13 2 13 -3 1 -6 3 -15 4 -21 1 -5 3 -12 4
-15 0 -3 10 -1 22 5 43 23 -4 121 -78 161 -24 13 -43 26 -43 29 0 13 -197 9
-235 -5z"/>
<path d="M2436 2527 c3 -10 9 -15 12 -12 3 3 0 11 -7 18 -10 9 -11 8 -5 -6z"/>
<path d="M3503 2528 c-18 -21 -28 -205 -19 -331 1 -21 -1 -40 -5 -42 -10 -7
-132 122 -254 270 -74 89 -104 111 -119 86 -4 -5 -9 -49 -12 -98 -8 -114 -9
-126 -15 -138 -3 -6 -4 -20 -3 -32 0 -13 -2 -23 -5 -23 -4 0 -7 -10 -7 -22 -1
-77 -5 -99 -16 -92 -10 6 -10 4 0 -7 6 -7 12 -25 12 -41 0 -17 7 -31 20 -38
18 -10 22 -7 33 20 8 17 17 27 22 23 4 -5 3 1 -2 12 -6 11 -9 45 -8 75 7 134
16 265 20 269 9 8 40 -27 173 -194 74 -93 146 -180 160 -191 32 -28 59 -20 68
20 7 29 6 233 -1 301 -2 17 -3 57 -4 91 -1 66 -19 106 -38 82z"/>
<path d="M1675 2520 c-3 -5 -1 -10 4 -10 6 0 11 5 11 10 0 6 -2 10 -4 10 -3 0
-8 -4 -11 -10z"/>
<path d="M1761 2514 c0 -11 3 -14 6 -6 3 7 2 16 -1 19 -3 4 -6 -2 -5 -13z"/>
<path d="M800 2500 c-12 -23 -24 -192 -25 -360 0 -104 2 -115 19 -118 39 -8
42 11 47 258 1 58 4 113 8 122 5 14 22 4 95 -58 49 -42 100 -80 113 -85 35
-13 78 9 153 79 36 34 68 61 73 62 4 0 7 -39 7 -87 1 -49 3 -112 6 -141 5 -43
2 -58 -13 -75 -18 -22 -18 -22 4 -4 21 18 21 18 28 -2 3 -12 3 -26 -1 -32 -4
-8 -3 -9 4 -5 7 4 12 3 12 -2 0 -16 39 -21 50 -7 7 8 10 36 9 62 -1 27 1 55 6
63 6 9 4 11 -4 6 -9 -6 -12 8 -11 55 1 35 1 66 0 69 -3 8 -8 50 -15 123 -6 60
-23 98 -43 97 -18 -1 -58 -32 -142 -110 -51 -47 -96 -86 -100 -88 -9 -3 -8 -4
-127 111 -96 92 -131 108 -153 67z"/>
<path d="M1687 2490 c-9 -11 -17 -26 -17 -34 0 -22 -26 -66 -35 -58 -5 4 -5 2
-2 -5 7 -11 -30 -92 -48 -105 -5 -4 -6 -8 -2 -8 5 0 -1 -17 -14 -37 -37 -63
-53 -97 -57 -122 -2 -14 -7 -32 -12 -41 -11 -21 4 -45 29 -46 15 -1 26 14 47
60 15 34 31 64 36 67 5 3 10 10 9 15 0 5 10 8 22 7 85 -7 109 -8 112 -2 3 3
16 4 29 2 18 -4 31 -19 46 -52 27 -57 48 -81 70 -81 28 0 31 25 10 86 -11 31
-17 61 -13 67 3 5 1 7 -4 4 -10 -6 -29 37 -25 56 1 4 -3 7 -8 7 -5 0 -10 6
-10 13 0 7 -20 53 -44 102 -24 49 -42 94 -39 99 4 5 1 6 -5 2 -7 -4 -12 -1
-12 6 0 21 -44 20 -63 -2z m73 -222 c0 -9 -70 -11 -93 -2 -13 5 -13 9 1 37 10
18 22 35 27 39 6 4 11 13 11 20 1 7 2 18 3 23 2 11 51 -102 51 -117z"/>
<path d="M1709 2323 c-13 -16 -12 -17 4 -4 9 7 17 15 17 17 0 8 -8 3 -21 -13z"/>
<path d="M1695 2280 c-3 -5 -1 -10 4 -10 6 0 11 5 11 10 0 6 -2 10 -4 10 -3 0
-8 -4 -11 -10z"/>
<path d="M3818 2493 c-24 -30 -186 -369 -193 -405 -14 -80 39 -70 74 14 36 88
30 83 117 80 109 -4 120 -7 133 -42 25 -72 79 -115 95 -75 8 21 -35 135 -105
284 -56 117 -83 161 -99 161 -4 0 -14 -8 -22 -17z m46 -175 l26 -58 -60 0 -59
0 27 64 c15 36 30 62 34 58 4 -4 18 -33 32 -64z"/>
<path d="M2770 2481 c0 -6 4 -13 10 -16 6 -3 7 1 4 9 -7 18 -14 21 -14 7z"/>
<path d="M1920 2440 c-9 -6 -10 -10 -3 -10 6 0 15 5 18 10 8 12 4 12 -15 0z"/>
<path d="M1615 2429 c-4 -6 -5 -12 -2 -15 2 -3 7 2 10 11 7 17 1 20 -8 4z"/>
<path d="M2730 2406 c0 -2 8 -10 18 -17 15 -13 16 -12 3 4 -13 16 -21 21 -21
13z"/>
<path d="M2391 2353 c7 -12 15 -20 18 -17 3 2 -3 12 -13 22 -17 16 -18 16 -5
-5z"/>
<path d="M2705 2320 c10 -11 20 -20 23 -20 3 0 -3 9 -13 20 -10 11 -20 20 -23
20 -3 0 3 -9 13 -20z"/>
<path d="M1453 2315 c0 -8 4 -12 9 -9 5 3 6 10 3 15 -9 13 -12 11 -12 -6z"/>
<path d="M1840 2326 c0 -2 7 -7 16 -10 8 -3 12 -2 9 4 -6 10 -25 14 -25 6z"/>
<path d="M1548 2293 c7 -3 16 -2 19 1 4 3 -2 6 -13 5 -11 0 -14 -3 -6 -6z"/>
<path d="M2380 2296 c0 -2 8 -10 18 -17 15 -13 16 -12 3 4 -13 16 -21 21 -21
13z"/>
<path d="M2330 2226 c0 -2 7 -7 16 -10 8 -3 12 -2 9 4 -6 10 -25 14 -25 6z"/>
<path d="M1145 2200 c-3 -6 1 -7 9 -4 18 7 21 14 7 14 -6 0 -13 -4 -16 -10z"/>
<path d="M2300 2206 c0 -2 8 -10 18 -17 15 -13 16 -12 3 4 -13 16 -21 21 -21
13z"/>
<path d="M1199 2163 c-13 -16 -12 -17 4 -4 9 7 17 15 17 17 0 8 -8 3 -21 -13z"/>
<path d="M1075 2160 c-3 -5 -1 -10 4 -10 6 0 11 5 11 10 0 6 -2 10 -4 10 -3 0
-8 -4 -11 -10z"/>
<path d="M1470 2159 c0 -5 5 -7 10 -4 6 3 10 8 10 11 0 2 -4 4 -10 4 -5 0 -10
-5 -10 -11z"/>
<path d="M2740 2166 c0 -2 8 -10 18 -17 15 -13 16 -12 3 4 -13 16 -21 21 -21
13z"/>
<path d="M1067 1872 c2 -90 6 -112 18 -100 12 12 6 168 -7 181 -11 11 -13 -3
-11 -81z"/>
<path d="M3113 1950 c-2 -24 13 -35 20 -16 3 8 0 19 -7 25 -8 7 -12 5 -13 -9z"/>
<path d="M890 1946 c0 -9 7 -16 16 -16 17 0 14 22 -4 28 -7 2 -12 -3 -12 -12z"/>
<path d="M3750 1945 c0 -8 5 -15 10 -15 6 0 10 7 10 15 0 8 -4 15 -10 15 -5 0
-10 -7 -10 -15z"/>
<path d="M3892 1940 c-7 -11 -9 -20 -4 -20 10 0 32 22 32 32 0 15 -15 8 -28
-12z"/>
<path d="M286 1935 c-29 -30 -12 -68 39 -90 37 -15 40 -21 26 -44 -6 -9 -21
-12 -45 -9 -23 2 -35 0 -33 -6 4 -14 68 -19 85 -8 7 5 14 22 15 38 2 24 -4 32
-32 46 -45 23 -53 31 -45 52 5 13 15 17 41 14 20 -2 32 0 30 6 -6 18 -63 18
-81 1z"/>
<path d="M978 1893 c-4 -79 1 -125 14 -121 7 3 10 31 9 77 -2 58 0 71 11 65
10 -6 11 -5 1 8 -7 8 -10 18 -6 21 3 4 -1 7 -9 7 -13 0 -17 -13 -20 -57z"/>
<path d="M1788 1929 c16 -20 1 -34 -26 -24 -9 3 -13 3 -9 -1 4 -4 1 -14 -7
-23 -16 -19 -27 -83 -12 -74 5 4 7 -1 3 -10 -4 -10 -2 -16 5 -14 7 1 12 -3 13
-10 0 -6 4 -15 9 -20 5 -5 6 -3 2 5 -5 8 2 12 26 12 19 0 39 5 46 12 9 9 12 9
12 0 0 -7 4 -12 9 -12 4 0 9 22 10 49 0 28 1 53 2 58 5 32 -3 74 -13 70 -8 -2
-12 -17 -10 -37 2 -30 1 -32 -15 -19 -10 8 -26 23 -38 34 -11 12 -14 13 -7 4z
m40 -62 c18 -19 20 -26 9 -47 -14 -28 -51 -38 -73 -19 -12 10 -12 14 -2 20 10
7 10 9 1 9 -19 0 -16 17 7 40 25 25 32 25 58 -3z"/>
<path d="M2202 1936 c13 -10 17 -27 15 -79 -1 -46 -6 -67 -14 -67 -7 0 -13 -4
-13 -9 0 -15 69 -19 74 -4 3 7 0 13 -7 13 -9 0 -14 21 -15 70 -1 42 2 70 8 70
5 0 10 5 10 10 0 6 -17 10 -37 10 -33 -1 -36 -2 -21 -14z"/>
<path d="M2990 1930 c0 -10 -8 -24 -17 -29 -17 -10 -17 -10 0 -11 14 0 17 -10
17 -60 l0 -60 34 0 c19 0 36 -6 39 -12 3 -7 4 -3 4 10 -1 17 -7 22 -30 22 -27
0 -28 1 -25 48 3 41 6 47 26 46 26 -1 30 15 5 17 -10 1 -21 1 -25 0 -5 0 -8
10 -8 24 0 14 -4 25 -10 25 -5 0 -10 -9 -10 -20z"/>
<path d="M1375 1897 c-16 -12 -26 -17 -22 -10 4 6 0 13 -8 17 -12 4 -15 -7
-15 -64 0 -52 3 -70 14 -70 9 0 12 12 10 41 -3 40 14 70 46 81 7 2 11 9 9 15
-3 8 -15 4 -34 -10z"/>
<path d="M2501 1907 c-8 -11 -5 -28 13 -73 13 -32 30 -59 36 -59 14 0 66 123
55 133 -6 7 -28 -23 -31 -44 -4 -27 -16 -54 -23 -54 -9 0 -36 78 -34 98 1 15
-2 15 -16 -1z"/>
<path d="M480 1903 c-50 -18 -68 -84 -32 -116 20 -18 87 -23 97 -7 3 5 -9 9
-29 8 -34 -1 -66 15 -66 33 0 5 25 9 56 9 53 0 55 1 49 23 -7 21 -41 58 -54
56 -3 0 -13 -3 -21 -6z m40 -28 c17 -20 8 -28 -35 -29 -39 -1 -43 5 -19 28 20
20 38 20 54 1z"/>
<path d="M660 1900 c-8 -5 -22 -7 -31 -4 -14 4 -17 -5 -17 -61 0 -36 4 -65 9
-65 5 0 10 12 10 28 1 15 2 32 3 37 4 35 53 66 68 43 4 -7 8 -34 8 -60 0 -27
5 -48 10 -48 6 0 10 18 10 40 0 27 7 47 20 60 36 36 52 22 55 -49 1 -24 6 -46
11 -48 6 -2 9 19 8 49 -2 69 -1 66 -25 78 -16 9 -26 8 -45 -5 -22 -14 -26 -14
-40 0 -18 17 -33 19 -54 5z"/>
<path d="M1176 1889 c-45 -35 -33 -106 19 -118 6 -2 16 -8 24 -14 11 -9 13 -9
8 0 -5 7 1 13 15 15 34 5 18 22 -18 19 -18 -1 -36 4 -44 14 -17 21 -5 32 17
14 11 -9 14 -10 9 -1 -5 9 4 12 34 12 38 0 41 2 35 23 -8 25 -41 57 -60 57 -7
0 -24 -9 -39 -21z m66 -17 c18 -18 -2 -29 -41 -23 -32 6 -34 7 -18 23 18 18
41 18 59 0z"/>
<path d="M1484 1902 c3 -2 -8 -17 -24 -32 -16 -16 -24 -30 -19 -32 6 -2 12
-15 12 -29 1 -14 7 -26 12 -26 6 -1 25 -6 42 -11 30 -10 36 -8 62 19 25 25 28
33 21 58 -4 16 -6 32 -4 35 2 3 1 4 -3 1 -3 -3 -13 1 -21 7 -13 11 -88 21 -78
10z m71 -36 c15 -22 15 -42 2 -63 -10 -16 -63 -17 -73 -1 -5 7 -2 9 7 4 8 -4
5 0 -6 9 -21 16 -21 21 -3 43 6 6 7 12 2 13 -13 1 28 16 44 16 7 0 20 -10 27
-21z"/>
<path d="M1964 1898 c-24 -11 -43 -44 -39 -68 7 -39 12 -46 43 -57 22 -8 41
-9 57 -3 34 13 31 23 -4 18 -18 -3 -28 0 -24 6 4 6 -1 7 -12 2 -16 -6 -34 7
-35 25 0 3 23 7 51 8 36 1 48 -2 43 -10 -4 -8 -3 -9 5 -5 6 4 9 12 5 17 -3 5
0 17 7 25 10 12 10 15 -2 12 -8 -2 -13 3 -11 10 1 6 1 12 -1 12 -1 0 -16 4
-32 9 -18 5 -39 4 -51 -1z m36 -19 c0 -5 4 -8 9 -4 5 3 13 0 17 -6 9 -16 -14
-28 -45 -22 -35 6 -39 12 -17 29 23 17 36 18 36 3z"/>
<path d="M2319 1851 c-2 -35 -1 -68 2 -73 12 -19 25 1 23 34 -3 37 12 72 27
63 5 -4 9 -1 9 5 0 8 6 8 21 0 17 -10 20 -19 18 -58 -2 -29 1 -47 9 -50 7 -2
12 2 13 10 4 46 -1 91 -10 102 -6 7 -8 16 -4 19 3 4 -8 5 -26 3 -18 -2 -37 -8
-43 -14 -8 -8 -15 -7 -24 6 -10 14 -13 6 -15 -47z"/>
<path d="M2693 1900 c-13 -5 -23 -14 -23 -20 0 -6 -4 -9 -9 -6 -8 5 -7 -26 1
-84 3 -20 103 -27 110 -8 4 10 -5 12 -37 10 -36 -3 -45 0 -55 18 -10 19 -9 21
7 20 10 -1 37 -2 60 -1 42 1 42 1 32 28 -10 27 -36 53 -54 52 -5 0 -20 -4 -32
-9z m52 -26 c20 -20 15 -25 -25 -28 -36 -3 -47 8 -30 29 16 19 35 19 55 -1z"/>
<path d="M2846 1894 c-20 -20 -20 -50 0 -58 9 -3 12 -11 8 -18 -5 -10 -4 -10
6 -1 15 14 40 6 40 -13 0 -9 -12 -14 -35 -14 -19 0 -35 -4 -35 -10 0 -5 16
-10 35 -10 34 0 75 30 75 54 0 6 -5 4 -10 -4 -6 -10 -10 -11 -10 -3 0 7 -16
19 -35 27 -33 14 -52 45 -19 32 10 -4 13 -2 8 6 -5 7 1 9 20 4 14 -3 26 -2 26
3 0 7 -32 20 -52 21 -4 0 -14 -7 -22 -16z"/>
<path d="M3125 1902 c-17 -12 -15 -130 2 -136 12 -5 13 0 8 23 -3 17 -2 32 4
36 6 3 11 12 11 18 0 7 -4 6 -10 -3 -7 -11 -8 -2 -4 28 7 44 6 47 -11 34z"/>
<path d="M3228 1898 c-16 -5 -29 -16 -29 -24 -3 -32 -3 -40 4 -69 6 -25 13
-31 38 -33 16 -1 38 2 49 8 15 8 20 8 20 -2 0 -27 -19 -41 -55 -41 -21 0 -41
6 -46 14 -7 11 -9 11 -9 -3 0 -20 7 -25 48 -33 52 -9 79 26 85 105 2 36 2 71
0 78 -7 18 -23 15 -23 -5 0 -15 -1 -15 -18 0 -21 19 -26 19 -64 5z m72 -41
c13 -23 13 -28 -4 -46 -50 -55 -109 8 -63 66 14 20 51 9 67 -20z"/>
<path d="M3430 1902 c-24 -8 -39 -35 -40 -68 0 -53 51 -80 102 -53 16 8 19 8
13 -1 -5 -8 -3 -11 6 -8 9 3 14 23 14 66 1 55 -1 61 -20 61 -11 -1 -29 1 -40
4 -11 2 -27 2 -35 -1z m54 -28 c32 -31 14 -84 -29 -84 -27 0 -45 18 -45 46 0
25 24 54 45 54 7 0 21 -7 29 -16z"/>
<path d="M3630 1899 c-39 -14 -53 -44 -40 -85 12 -34 39 -50 76 -42 34 6 25
24 -11 20 -29 -4 -36 0 -43 19 -5 13 -7 32 -4 42 5 21 45 39 67 31 8 -4 15 -2
15 4 0 8 -26 25 -33 21 -1 0 -13 -5 -27 -10z"/>
<path d="M3870 1898 c-31 -11 -40 -25 -40 -64 0 -58 63 -84 111 -46 31 26 31
80 -1 101 -29 19 -39 21 -70 9z m52 -20 c33 -25 26 -73 -11 -86 -24 -8 -32 -7
-45 7 -24 27 -21 70 7 81 30 12 31 12 49 -2z"/>
<path d="M4074 1894 c-18 -15 -18 -15 8 -10 34 8 39 -1 40 -64 0 -27 4 -50 9
-50 20 0 12 111 -9 128 -20 15 -24 15 -48 -4z"/>
<path d="M892 1835 c0 -62 9 -83 22 -49 3 8 11 12 17 8 8 -4 9 -3 5 5 -4 6
-11 9 -14 7 -4 -2 -7 16 -8 42 0 25 -5 47 -11 49 -7 3 -11 -19 -11 -62z"/>
<path d="M3750 1835 c0 -37 4 -65 10 -65 6 0 10 28 10 65 0 37 -4 65 -10 65
-6 0 -10 -28 -10 -65z"/>
<path d="M4027 1893 c-8 -17 -1 -117 10 -120 6 -2 10 9 9 29 -2 18 1 41 6 50
13 27 -11 67 -25 41z"/>
<path d="M1027 1759 c7 -7 15 -10 18 -7 3 3 -2 9 -12 12 -14 6 -15 5 -6 -5z"/>
<path d="M1214 1726 c1 -8 5 -18 8 -22 4 -3 5 1 4 10 -1 8 -5 18 -8 22 -4 3
-5 -1 -4 -10z"/>
<path d="M1868 1703 c7 -3 16 -2 19 1 4 3 -2 6 -13 5 -11 0 -14 -3 -6 -6z"/>
<path d="M2625 1690 c-3 -6 1 -7 9 -4 18 7 21 14 7 14 -6 0 -13 -4 -16 -10z"/>
<path d="M1511 1673 c7 -12 15 -20 18 -17 3 2 -3 12 -13 22 -17 16 -18 16 -5
-5z"/>
<path d="M2005 1660 c-3 -6 1 -7 9 -4 18 7 21 14 7 14 -6 0 -13 -4 -16 -10z"/>
<path d="M2949 1603 c-13 -16 -12 -17 4 -4 16 13 21 21 13 21 -2 0 -10 -8 -17
-17z"/>
<path d="M1630 1576 c0 -2 8 -10 18 -17 15 -13 16 -12 3 4 -13 16 -21 21 -21
13z"/>
<path d="M2387 1559 c7 -7 15 -10 18 -7 3 3 -2 9 -12 12 -14 6 -15 5 -6 -5z"/>
<path d="M2145 1520 c-3 -6 1 -7 9 -4 18 7 21 14 7 14 -6 0 -13 -4 -16 -10z"/>
<path d="M2040 1500 c-8 -5 -10 -10 -5 -10 6 0 17 5 25 10 8 5 11 10 5 10 -5
0 -17 -5 -25 -10z"/>
<path d="M2828 1493 c7 -3 16 -2 19 1 4 3 -2 6 -13 5 -11 0 -14 -3 -6 -6z"/>
<path d="M2454 1476 c1 -8 5 -18 8 -22 4 -3 5 1 4 10 -1 8 -5 18 -8 22 -4 3
-5 -1 -4 -10z"/>
<path d="M2494 1456 c1 -8 5 -18 8 -22 4 -3 5 1 4 10 -1 8 -5 18 -8 22 -4 3
-5 -1 -4 -10z"/>
<path d="M1670 1446 c0 -2 7 -7 16 -10 8 -3 12 -2 9 4 -6 10 -25 14 -25 6z"/>
<path d="M2065 1440 c-3 -6 1 -7 9 -4 18 7 21 14 7 14 -6 0 -13 -4 -16 -10z"/>
</g>
</svg>
